# xmcd CD database file generated by Grip 2.91
# 
# Track frame offsets:
#       182
#       27487
#       45780
#       63697
#       78040
#       112482
#       126082
#       144297
#       166635
#       188245
#       213792
#       232987
#       247932
#       270435
#       292440
# 
# Disc length: 4046 seconds
# 
# Revision: 3
# Processed by: cddbd v1.4b41PL1 Copyright (c) Steve Scherf et al.
# Submitted via: Grip 2.91
# 
DISCID=ce0fcc0f
DTITLE=Paul Lamb and the King Snakes - She's A Killer
DYEAR=1900
DGENRE=
TTITLE0=She's a killer
TTITLE1=Keep On Dreaming
TTITLE2=The girl for me
TTITLE3=Texas hop
TTITLE4=Blackjack game
TTITLE5=Who can it be
TTITLE6=Just a dream
TTITLE7=My baby she don't look like that
TTITLE8=Whoop and holler
TTITLE9=Reconsider baby
TTITLE10=Wild wild women
TTITLE11=Jump for joy
TTITLE12=Back at the chicken shack
TTITLE13=You're the one
TTITLE14=John's jump
EXTD=
EXTT0=
EXTT1=
EXTT2=
EXTT3=
EXTT4=
EXTT5=
EXTT6=
EXTT7=
EXTT8=
EXTT9=
EXTT10=
EXTT11=
EXTT12=
EXTT13=
EXTT14=
PLAYORDER=
